# xmcd
#
# Track frame offsets: 
#        150
#        23498
#        70230
#        94633
#        133218
#        180968
#        212543
#        245238
#        270078
#        301368
#        327058
#
# Disc length: 4745 seconds
#
# Revision: 3
# Processed by: cddbd v1.5.2PL0 Copyright (c) Steve Scherf et al.
# Submitted via: ExactAudioCopy v0.99pb3
#
DISCID=8b12870b
DTITLE=King Curtis - Soul Meeting
DYEAR=1960
DGENRE=Jazz
TTITLE0=Da-Duh-Dah
TTITLE1=Have You Heard?
TTITLE2=Willow Weep For Me
TTITLE3=Little Brother Soul
TTITLE4=In A Funky Groove
TTITLE5=Soul Meeting
TTITLE6=Lazy Soul
TTITLE7=All The Way
TTITLE8=Jeep's Blues
TTITLE9=What Is This Thing Called Love?
TTITLE10=Do You Have Soul Now?
EXTD=YEAR: 1994 ID3G: 0
EXTT0=
EXTT1=
EXTT2=
EXTT3=
EXTT4=
EXTT5=
EXTT6=
EXTT7=
EXTT8=
EXTT9=
EXTT10=
PLAYORDER=
